<?xml version="1.0" encoding="utf-8"?>
<!-- Generator: Adobe Illustrator 23.0.4, SVG Export Plug-In . SVG Version: 6.00 Build 0)  -->
<svg version="1.1" id="Layer_1" xmlns="http://www.w3.org/2000/svg" xmlns:xlink="http://www.w3.org/1999/xlink" x="0px" y="0px"
	 viewBox="0 0 318 219.7" style="enable-background:new 0 0 318 219.7;" xml:space="preserve">
<style type="text/css">
	.st0{fill:#5CDED0;}
	.st1{fill:none;stroke:#000000;stroke-width:3.67;stroke-linecap:round;stroke-linejoin:round;}
</style>
<title>hero-01-02</title>
<path class="st0" d="M263.6,99.3c0,62.2-47.1,112.7-105.1,112.7S53.4,161.5,53.4,99.3S100.8,8,158.8,8S263.6,37,263.6,99.3z"/>
<path class="st1" d="M223,161.4c-16.5-1.8-40.4,31.2-5.5,31.2c27.4,0,33.3-7.9,34.5-11.3c0.4-1,1.3-1.8,2.3-2.1
	c48.9-14.2,36.3-84,16.3-98.5c-20.2-14.7-11.5,23.9-1.8,53.2c5.3,16.1-8,31.7-7.3,27.5c5.5-33-19.6-63-33-75.2
	c-18.8-17.1-10.3-20.3-15.2-26.2c-0.7-0.9-1.9-1.3-3-1.1c-5.6,0.9-11.2,2.3-16.5,4.4c-1.2,0.5-2.6,0.2-3.5-0.7
	c-3.5-3.4-12-11.2-14.8-10.9c-7.4,0.8-22.8,22.1-29.9,33.6c-12.2,19.9-16.6,43.7-11.4,66.5c3.7,16.2,11.7,32,28.3,35.3
	c3.8,0.8,6.1-2,7.4-5.5c0.6-1.7,2.5-2.7,4.3-2c0.8,0.3,1.4,0.8,1.8,1.5c4.7,8.3,12.9,14.8,23.2-10.6"/>
<circle cx="166.1" cy="77" r="3.7"/>
<circle cx="208.4" cy="80.7" r="3.7"/>
<path class="st1" d="M176.6,78.5c0,0,4.2,7.4,11.5,2.2c0,0,5.2,7.3,11.2,0.3"/>
<circle cx="79.9" cy="58.7" r="3.7"/>
<circle cx="112.9" cy="44" r="3.7"/>
<path class="st1" d="M144.1,62.3c25.7,45.9,22,133.9,0,130.3c-9.2-5.5,0-29.4-12.8-29.4s-9.2,31.2-18.3,29.4s-9.2-27.5-20.2-23.9
	s0,25.7-16.5,23.9s-25.7-38.5-23.8-47.7c0,0-29.4-16.5-22-29.4s22,33,27.5,22c0,0-1.8-5.5,7.3-14.7s1.8-49.5,0-55
	c0,0,11,42.2-16.5,34.9c-15.1-4-11-49.5,14.7-49.5c0,0,12.8-20.2,22-22C85.4,31.2,118.4,16.5,144.1,62.3"/>
<path d="M109.3,64.2c0,0-18.3,5.5-12.8-3.7S122.1,47.7,109.3,64.2z"/>
<path class="st1" d="M120.9,35.9c0,0-11.7-13.9,14.1-6.6c19.3,5.5,27.2,18.2,24.5,25c0,0-5.5,14.4-21.4-1.6"/>
<path class="st1" d="M87.2,67.8c0,0,1.8,18.3,14.7,12.8s1.8-22,1.8-22"/>
<path class="st1" d="M107.4,58.7c0,0,4.2,18,16.2,10.9s-1-22.1-1-22.1"/>
</svg>
